<mxfile host="app.diagrams.net" modified="2023-09-01T12:32:58.975Z" agent="Mozilla/5.0 (Windows NT 10.0; Win64; x64) AppleWebKit/537.36 (KHTML, like Gecko) Chrome/116.0.0.0 Safari/537.36" version="21.7.1" etag="BxKNf-UaEdcjgvqOeGOG" type="github">
  <diagram name="Page-1" id="m6_r-NGmXyfQt_e6-zb8">
    <mxGraphModel>
      <root>
        <mxCell id="0" />
        <mxCell id="1" parent="0" />
      </root>
    </mxGraphModel>
  </diagram>
</mxfile>
